<?xml version="1.0" encoding="utf-8"?>
<!-- Generator: Adobe Illustrator 23.0.1, SVG Export Plug-In . SVG Version: 6.00 Build 0)  -->
<svg version="1.1" xmlns="http://www.w3.org/2000/svg" xmlns:xlink="http://www.w3.org/1999/xlink" x="0px" y="0px"
	 viewBox="0 0 1200 1200" style="enable-background:new 0 0 1200 1200;" xml:space="preserve">
<style type="text/css">
	.st0{fill:#FFFFFF;stroke:#000000;stroke-width:10;stroke-miterlimit:10;}
	.st1{fill:#FFFFFF;stroke:#000000;stroke-width:5;stroke-miterlimit:10;}
	.st2{fill:#141414;stroke:#141414;stroke-width:5;stroke-miterlimit:10;}
	.st3{fill:#4ECCB4;stroke:#000000;stroke-width:5;stroke-miterlimit:10;}
	.st4{fill:#4CE5CB;stroke:#000000;stroke-width:5;stroke-miterlimit:10;}
	.st5{fill:#141414;stroke:#141414;stroke-width:2;stroke-miterlimit:10;}
	.st6{fill:#4F4F4F;stroke:#000000;stroke-width:5;stroke-miterlimit:10;}
	.st7{fill:#FF4848;stroke:#000000;stroke-width:5;stroke-miterlimit:10;}
	.st8{fill:#2A60FF;stroke:#000000;stroke-width:5;stroke-miterlimit:10;}
	.st9{fill:none;stroke:#000000;stroke-width:5;stroke-miterlimit:10;}
	.st10{fill:#FFFFFF;}
</style>
<g id="Warstwa_1">
	<circle class="st0" cx="600" cy="716.5" r="437.5"/>
</g>
<g id="Warstwa_2">
	<path class="st1" d="M1053.1,216.5H824.6c0,0,1.4-53.9,33.3-55.4c33.3-1.5,33.3,14.2,36.2,14.2s1.4-48.3,43.4-51.1
		c41.9-2.8,37.6,48.3,40.5,51.1c2.9,2.8,37.6-8.5,55,4.3C1050.2,192.4,1053.1,216.5,1053.1,216.5z"/>
	<path class="st1" d="M434.7,118.5H668c0,0-1.5-56.1-34-57.6c-34-1.5-34,14.8-36.9,14.8s-1.5-50.2-44.3-53.2
		c-42.8-3-38.4,50.2-41.3,53.2s-38.4-8.9-56.1,4.4C437.7,93.4,434.7,118.5,434.7,118.5z"/>
	<path class="st2" d="M355.2,481.1c0,0-55,12.8-89.7,78.8s-46.8,126.3-46.8,126.3l31.1,9.8c0,0,22-91.5,46.4-121.4
		c24.5-30,60.3-49.2,60.3-49.2L355.2,481.1z"/>
	<path class="st3" d="M421.6,910.8l-29.1,11.8c-0.8,0.3-2.8,0.5-3.3-0.1l-24.7-33.4l-18.8-504.5l14.3-17.5c0.7-0.8,4.1-0.1,4.6,0.8
		L459,594.8L421.6,910.8z"/>
	<path class="st2" d="M548.4,901.9c0,0-5.8,73.1,0.2,90.8s20.5,50.7,20.5,50.7l-216.9,12.2c0,0,5.4-68.3,72.2-75.2
		c66.8-7,87.4,11.8,87.4,11.8l-5-91.2L548.4,901.9z"/>
	<path class="st2" d="M660.6,900.2c0,0,9.3,72.8,4.2,90.7s-18,51.6-18,51.6l217.2,1.7c0,0-8.7-67.9-75.8-71.7
		c-67.1-3.7-86.7,16.1-86.7,16.1l0.6-91.3L660.6,900.2z"/>
	<path class="st2" d="M1009,373.5c0,0-32.5,135.5-93.8,161.8c-48.3,20.7-117-9.3-117-9.3l-0.4-56.5c0,0,51.9,26.2,93.9,22.2
		c38.9-3.7,87.5-112.7,93.5-127.5C985.7,363.1,1009,373.5,1009,373.5z"/>
	<polygon class="st4" points="391.2,923.1 364.3,366.5 821.6,353.7 839,907.2 	"/>
	
		<ellipse transform="matrix(0.9906 -0.1371 0.1371 0.9906 -34.1898 67.8354)" class="st1" cx="475.2" cy="282.1" rx="57.5" ry="97.8"/>
	
		<ellipse transform="matrix(3.906115e-02 -0.9992 0.9992 3.906115e-02 394.0385 965.2228)" class="st1" cx="698.9" cy="277.7" rx="97.8" ry="57.5"/>
	
		<ellipse transform="matrix(0.9906 -0.1371 0.1371 0.9906 -35.5415 68.4937)" class="st2" cx="479.3" cy="292.2" rx="37.9" ry="64.6"/>
	
		<ellipse transform="matrix(3.906115e-02 -0.9992 0.9992 3.906115e-02 388.7938 969.5217)" class="st5" cx="698.5" cy="282.6" rx="68.8" ry="40.4"/>
	<circle class="st6" cx="480.4" cy="494.7" r="64.8"/>
	<line class="st4" x1="422.2" y1="594.4" x2="547.5" y2="592"/>
	<line class="st4" x1="424.6" y1="626.4" x2="549.9" y2="624.1"/>
	<line class="st4" x1="426.3" y1="697.7" x2="551.6" y2="695.4"/>
	<line class="st4" x1="431.1" y1="730" x2="556.4" y2="727.7"/>
	<line class="st4" x1="428.4" y1="764.1" x2="553.7" y2="761.8"/>
	<line class="st4" x1="430.2" y1="803.5" x2="555.5" y2="801.2"/>
	<line class="st4" x1="435" y1="835.8" x2="560.3" y2="833.5"/>
	<line class="st4" x1="432.2" y1="870" x2="557.6" y2="867.6"/>
	<polygon class="st1" points="594.5,401.9 790.9,400.4 797.1,879.3 602.9,883.5 	"/>
	<path class="st7" d="M507.3,387.7c0,0,16.8,47.7,83.8,47c67.1-0.7,88-48.1,88-48.1L507.3,387.7z"/>
	<path class="st8" d="M469.6,492.6c0,0-7.3-0.6-14.1,23.4s-7.4,31.3-7.4,31.3s8.1,9.8,20.7,11.1c12.6,1.3,36.2,0.7,48.7-10.5
		c0,0-13.3-57.5-27.8-61.1C475.2,483.3,469.6,492.6,469.6,492.6z"/>
	
		<ellipse transform="matrix(7.916444e-02 -0.9969 0.9969 7.916444e-02 -36.5902 914.8981)" class="st1" cx="476.9" cy="477.3" rx="20.8" ry="18.3"/>
	<path class="st1" d="M467.7,485.1c0,0,2.2,2.6,7.1,3c4.9,0.4,10.1-4.1,10.1-4.1"/>
	<line class="st1" x1="481.5" y1="466.6" x2="480.9" y2="473.9"/>
	<line class="st1" x1="469.3" y1="465.6" x2="468.7" y2="472.9"/>
	<line class="st4" x1="631.3" y1="463.8" x2="756.7" y2="461.4"/>
	<line class="st4" x1="633.7" y1="495.8" x2="759" y2="493.5"/>
	<line class="st4" x1="635.4" y1="567.1" x2="760.7" y2="564.8"/>
	<line class="st4" x1="640.2" y1="599.4" x2="765.5" y2="597.1"/>
	<line class="st4" x1="637.5" y1="633.5" x2="762.8" y2="631.2"/>
	<line class="st4" x1="636.6" y1="707.1" x2="761.9" y2="704.8"/>
	<line class="st4" x1="641.4" y1="739.3" x2="766.7" y2="737"/>
	<line class="st4" x1="638.6" y1="773.5" x2="764" y2="771.2"/>
	<line class="st4" x1="640.9" y1="837.5" x2="766.2" y2="835.1"/>
	<path class="st1" d="M971.9,346c0,0-21.9-1.7-15.8,13.5c6.2,15.2,58.4,36.5,66.1,32.2c7.7-4.3,6.4-19.1,6.4-19.1
		s25.2-7.8,36.8-31.4s28.8-54.1,19.7-62.2c-9.2-8.1-28.9,24.7-31.4,24.5c-2.4-0.2,18.5-47.6,6.9-55.9c-11.6-8.3-35.8,48.7-38.2,48.5
		c-2.4-0.2,17-60,4.8-61c-12.2-1-29.2,59-31.7,58.8c-2.4-0.2-6.8-37.3-22.1-31.2s-17,28.1-11.4,50.6
		C967.8,335.9,971.9,346,971.9,346z"/>
	<path class="st1" d="M1009.7,302.4c0,0,36.2,7.8,42.9,15.7"/>
	<path class="st1" d="M994.7,306.1c0,0,14,8.5,15.9,16c1.9,7.5,0.9,19.7,0.9,19.7"/>
	<path class="st1" d="M258.1,707.8c0,0,21.9-1.7,13.5-15.8s-63.4-26.9-70.4-21.5s-3.4,19.9-3.4,19.9s-23.6,11.7-31.5,36.8
		c-7.8,25.1-20,58-9.7,64.5c10.3,6.6,27-36.8,29.5-37c2.4-0.2-13.1,57.8-0.4,64.2c12.8,6.4,27.7-53.7,30.1-53.9
		c2.4-0.2-7.4,61.9,4.8,61c12.2-1,19.6-62.9,22.1-63.1c2.4-0.2,12.6,35.8,26.7,27.4s12.3-30.4,3.3-51.8S258.1,707.8,258.1,707.8z"/>
	<path class="st9" d="M408,185.9c0,0,14.3-25.9,49-30.5s55.7,9.3,55.7,9.3"/>
	<path class="st9" d="M649.3,171.1c0,0,19.7-22,54.6-18.8c34.9,3.2,52.2,21.4,52.2,21.4"/>
	<polygon class="st10" points="432.3,251.7 466.7,281.4 423.4,270.6 	"/>
	<polygon class="st10" points="668.3,226.7 689.7,266.9 653.2,241.2 	"/>
	<path class="st1" d="M369.4,288.5H63.8c0,0,1.9-72.1,44.5-74c44.5-2,44.5,19,48.4,19c3.9,0,1.9-64.6,58-68.3
		c56.1-3.8,50.3,64.6,54.2,68.3c3.9,3.8,50.3-11.4,73.5,5.7C365.6,256.2,369.4,288.5,369.4,288.5z"/>
</g>
</svg>
